# xmcd
#
# Track frame offsets:
#   150
#   25377
#   50875
#   71794
#   93042
#   116978
#   140291
#   161214
#   181074
#   204309
#   226275
#   250715
#   267145
#
# Disc length: 3761 seconds
#
# Revision: 0
# Processed by: cddbd v1.5PL3 Copyright (c) Steve Scherf et al.
# Submitted via: uFREEDB ActiveX Control 1.5
#
DISCID=b50eaf0d
DTITLE=yy7767t - jku
DYEAR=1985
DGENRE=Children's Music
TTITLE0=alegria
TTITLE1=jarepaguá
TTITLE2=lins
TTITLE3=estácio
TTITLE4=tuiuti
TTITLE5=vila
TTITLE6=cubango
TTITLE7=santa cruz
TTITLE8=rocinha
TTITLE9=inocentes
TTITLE10=leão
TTITLE11=ilha
TTITLE12=curicica
EXTD=
EXTT0=
EXTT1=
EXTT2=
EXTT3=
EXTT4=
EXTT5=
EXTT6=
EXTT7=
EXTT8=
EXTT9=
EXTT10=
EXTT11=
EXTT12=
PLAYORDER=
